<svg width="638" height="210" viewBox="0 0 638 210" fill="none" xmlns="http://www.w3.org/2000/svg">
<path d="M372.375 0.562582C373.422 0.556227 374.47 0.549872 375.549 0.543325C395.697 0.467017 415.654 2.27809 435.375 6.50008C436.362 6.69989 437.35 6.89969 438.367 7.10555C483.008 16.3274 526.075 38.0513 554 75.0001C554.746 75.954 555.493 76.9079 556.262 77.8907C565.755 90.2042 576.027 105.083 581 120C585.023 116.21 588.67 112.255 592.125 107.938C596.422 102.584 601.024 97.5759 605.747 92.5955C608.717 89.5509 608.717 89.5509 611 86.0001C619.91 86.0001 628.82 86.0001 638 86.0001C633.998 91.3356 630.12 96.2142 625.562 101C624.408 102.229 623.254 103.458 622.102 104.688C621.288 105.554 621.288 105.554 620.458 106.438C617.552 109.552 614.768 112.764 612 116C610.549 117.695 609.099 119.39 607.648 121.086C606.598 122.312 605.548 123.539 604.499 124.766C600.391 129.563 596.224 134.304 592 139C594.435 146.632 597.337 154.03 600.324 161.461C600.836 162.741 601.347 164.022 601.858 165.302C604.013 170.699 606.173 176.095 608.338 181.488C609.669 184.803 610.994 188.121 612.317 191.439C612.82 192.699 613.325 193.958 613.832 195.217C614.538 196.969 615.237 198.723 615.936 200.478C616.336 201.475 616.735 202.471 617.147 203.498C618 206 618 206 618 209C604.8 209 591.6 209 578 209C573.38 197.12 568.76 185.24 564 173C561.809 172.767 561.809 172.767 560.152 174.801C559.421 175.63 558.691 176.459 557.938 177.313C557.128 178.23 556.318 179.148 555.484 180.094C553.172 182.799 550.921 185.542 548.688 188.313C547.547 189.662 547.547 189.662 546.383 191.039C544.639 193.206 543.169 195.262 541.68 197.586C538.188 202.596 535.178 206.415 528.919 207.567C521.257 208.126 513.639 207.718 506 207C506 206.34 506 205.68 506 205C506.66 205 507.32 205 508 205C508.215 204.465 508.431 203.93 508.652 203.379C510.493 200.131 512.998 197.616 515.562 194.938C519.344 190.922 522.994 186.877 526.438 182.563C530.458 177.55 534.777 172.891 539.179 168.218C543.436 163.674 547.41 158.98 551.293 154.109C553 152 553 152 555 150C554.461 143.448 551.451 138.018 548.625 132.188C548.087 131.075 547.549 129.962 546.995 128.816C542.342 119.373 537.132 110.549 531 102C530.37 101.12 530.37 101.12 529.728 100.222C524.126 92.4931 517.952 85.3281 511.365 78.4322C510.051 77.0531 508.753 75.6577 507.457 74.2618C489.267 55.2461 466.197 41.8785 442 32.0001C441.213 31.6767 440.425 31.3533 439.614 31.0201C409.613 18.8792 377.385 14.8122 345.223 14.8148C342.167 14.8126 339.111 14.7945 336.055 14.7755C317.906 14.7228 300.017 16.1947 282.062 18.8126C280.887 18.9829 279.712 19.1532 278.5 19.3287C268.2 20.8749 258.071 22.9476 247.932 25.3204C244.838 26.0376 241.739 26.724 238.637 27.4063C223.897 30.6775 209.419 34.5257 195 39.0001C193.818 39.3662 192.636 39.7323 191.418 40.1095C157.387 50.7208 123.48 62.6482 91.4543 78.4107C86.1829 81.0001 86.1829 81.0001 84 81.0001C84 80.3401 84 79.6801 84 79.0001C129.669 55.569 176.852 35.6239 226.623 22.6231C228.706 22.0772 230.785 21.5196 232.863 20.9532C235.877 20.1352 238.895 19.3367 241.917 18.5494C243.393 18.16 244.868 17.7631 246.341 17.3609C287.515 6.13804 329.748 0.693894 372.375 0.562582Z" fill="#FDFDFE"/>
<path d="M24 86C37.53 86 51.06 86 65 86C65.5659 91.0067 66.1318 96.0134 66.7148 101.172C67.0746 104.344 67.4345 107.516 67.7949 110.688C68.367 115.722 68.9385 120.756 69.5066 125.791C69.9646 129.85 70.4252 133.909 70.8877 137.968C71.0636 139.516 71.2386 141.065 71.4127 142.613C71.6567 144.783 71.904 146.951 72.1521 149.12C72.292 150.355 72.4319 151.589 72.576 152.862C72.9086 155.323 73.3214 157.616 74 160C74.3811 159.308 74.7622 158.616 75.1548 157.902C82.5664 144.457 90.0595 131.075 97.8369 117.836C104.021 107.296 110.009 96.6506 116 86C127.88 86 139.76 86 152 86C150.875 97.2498 150.875 97.2498 150.089 101.104C149.824 102.422 149.824 102.422 149.554 103.766C149.363 104.692 149.172 105.617 148.975 106.571C148.771 107.576 148.568 108.58 148.358 109.615C147.691 112.905 147.018 116.193 146.344 119.48C145.876 121.781 145.409 124.082 144.943 126.382C143.718 132.419 142.487 138.454 141.255 144.489C139.282 154.158 137.316 163.828 135.352 173.498C134.666 176.868 133.978 180.238 133.289 183.607C132.868 185.677 132.447 187.747 132.025 189.817C131.834 190.749 131.643 191.68 131.446 192.64C131.181 193.946 131.181 193.946 130.911 195.277C130.758 196.025 130.605 196.772 130.448 197.542C129.876 200.68 129.451 203.843 129 207C119.1 207 109.2 207 99 207C101.907 191.012 104.944 175.06 108.125 159.125C108.295 158.272 108.464 157.418 108.639 156.539C110.607 146.654 112.652 136.803 115 127C113.561 128.439 112.742 130.114 111.734 131.883C111.263 132.708 110.793 133.533 110.307 134.384C109.536 135.741 109.536 135.741 108.75 137.125C108.214 138.066 107.677 139.008 107.124 139.978C103.825 145.773 100.543 151.577 97.2676 157.386C92.138 166.481 86.9782 175.559 81.7672 184.608C80.7641 186.351 79.7623 188.094 78.7605 189.837C78.1538 190.888 77.547 191.94 76.9219 193.023C76.3814 193.961 75.841 194.899 75.2842 195.865C74 198 74 198 73 199C71.2923 199.087 69.581 199.107 67.8711 199.098C66.3194 199.093 66.3194 199.093 64.7363 199.088C63.6477 199.08 62.5591 199.071 61.4375 199.062C59.7988 199.056 59.7988 199.056 58.127 199.049C55.4179 199.037 52.709 199.021 50 199C44.8704 156.465 44.8704 156.465 42.9011 137.442C42.7412 135.903 42.7412 135.903 42.5781 134.332C42.4895 133.463 42.4009 132.594 42.3096 131.698C41.9376 128.456 41.4661 125.231 41 122C40.8416 122.819 40.6832 123.639 40.5199 124.483C39.0207 132.236 37.5204 139.988 36.0187 147.741C35.2468 151.726 34.4754 155.71 33.7051 159.696C32.9605 163.547 32.2147 167.399 31.4681 171.25C31.1846 172.713 30.9016 174.177 30.619 175.64C28.1201 188.58 28.1201 188.58 26.8726 193.908C25.9531 198.22 25.4868 202.619 25 207C16.75 207 8.5 207 0 207C1.12503 196.875 1.12503 196.875 1.94873 192.755C2.13377 191.82 2.31881 190.885 2.50946 189.922C2.71001 188.929 2.91056 187.936 3.11719 186.912C3.33031 185.841 3.54342 184.77 3.763 183.667C4.4632 180.153 5.16894 176.641 5.875 173.129C6.36467 170.68 6.85409 168.232 7.34326 165.783C8.4971 160.012 9.65475 154.242 10.8139 148.473C11.8706 143.211 12.9225 137.948 13.973 132.685C15.1113 126.983 16.2529 121.281 17.3961 115.579C17.8817 113.156 18.3665 110.732 18.8505 108.308C19.5251 104.932 20.2034 101.557 20.8828 98.1819C21.0834 97.1746 21.2839 96.1674 21.4905 95.1296C21.6756 94.2143 21.8606 93.299 22.0513 92.356C22.2913 91.1595 22.2913 91.1595 22.5362 89.9389C23 88 23 88 24 86Z" fill="#FDFEFE"/>
<path d="M324 98.0002C323.691 100.438 323.378 102.876 323.063 105.313C322.976 106.003 322.889 106.693 322.799 107.405C322.408 110.402 321.959 113.125 321 116C334.53 116 348.06 116 362 116C362.33 112.7 362.66 109.4 363 106C363.33 104.68 363.66 103.36 364 102C374.796 99.6125 385.912 97.5476 397 98.0002C396.414 104.158 395.433 109.983 394 116C398.95 116 403.9 116 409 116C408.414 122.158 407.433 127.983 406 134C400.72 134 395.44 134 390 134C389.773 135.65 389.546 137.3 389.313 139C388.46 144.676 387.31 150.24 386.069 155.843C382.492 169.814 382.492 169.814 383 184C384.709 186.397 384.709 186.397 387 188C391.436 187.839 394.943 186.684 399 185C398.699 188.112 398.325 191.211 397.938 194.313C397.853 195.194 397.769 196.075 397.682 196.983C397.346 199.503 396.972 201.649 396 204C387.265 209.44 373.589 210.445 363.559 208.535C358.144 206.987 353.631 204.365 350 200C344.534 188.807 348.79 174.217 351.375 162.688C351.697 161.203 352.017 159.718 352.336 158.233C352.944 155.408 353.56 152.585 354.183 149.763C355.047 145.785 355.843 141.798 356.592 137.796C357 136 357 136 358 134C344.47 134 330.94 134 317 134C316.402 137.692 315.804 141.384 315.188 145.188C314.089 151.922 312.959 158.58 311.25 165.188C309.762 171.319 308.882 177.742 310 184C311.687 186.443 311.687 186.443 314 188C318.436 187.839 321.943 186.684 326 185C325.699 188.112 325.325 191.211 324.938 194.313C324.853 195.194 324.769 196.075 324.682 196.983C324.346 199.505 323.977 201.649 323 204C319.668 206.031 319.668 206.031 316 207C315.203 207.241 314.407 207.482 313.586 207.731C303.865 209.74 293.066 210.754 284 206C279.953 203.227 276.903 200.586 275 196C274.059 187.272 275.626 178.625 277.188 170.063C277.521 168.182 277.521 168.182 277.86 166.263C279.828 155.404 282.255 144.687 285 134C281.7 134 278.4 134 275 134C275.52 127.764 276.326 122.027 278 116C281.63 116 285.26 116 289 116C289.144 114.247 289.289 112.494 289.438 110.688C289.697 107.538 289.997 105.008 291 102C301.796 99.6125 312.912 97.5476 324 98.0002Z" fill="#FDFEFE"/>
<path d="M216.102 114.91C216.792 114.914 217.483 114.917 218.195 114.92C226.966 114.983 235.733 115.243 244.5 115.5C246.21 115.548 247.919 115.597 249.629 115.645C253.753 115.761 257.876 115.88 262 116C258.324 135.329 254.5 154.626 250.63 173.917C249.745 178.332 248.861 182.747 247.977 187.162C246.652 193.775 245.326 200.387 244 207C233.11 207 222.22 207 211 207C212.32 201.72 213.64 196.44 215 191C216.122 186.289 217.234 181.576 218.33 176.859C218.637 175.556 218.637 175.556 218.949 174.227C219.128 173.459 219.307 172.692 219.491 171.901C220 170 220 170 221 168C220.34 168 219.68 168 219 168C218.754 168.851 218.508 169.702 218.254 170.578C216.893 174.291 215.087 177.459 212.938 180.75C212.542 181.359 212.146 181.968 211.739 182.596C203.508 194.977 194.19 204.27 180 209C174.065 209.604 170.725 208.908 165.82 205.484C160.014 200.75 156.47 195.253 155.645 187.781C154.795 165.914 166.175 146.503 180.688 130.813C190.672 121.287 202.148 114.839 216.102 114.91Z" fill="#FDFEFE"/>
<path d="M495 118C499.118 121.695 502.745 125.449 503.309 131.09C503.701 142.796 500.881 150.088 492.875 158.75C482.515 168.436 466.672 176.234 452.25 176.063C451.265 176.054 450.28 176.045 449.266 176.035C448.518 176.024 447.77 176.012 447 176C447.392 177.238 447.784 178.475 448.187 179.75C448.408 180.446 448.628 181.142 448.855 181.86C450.472 184.884 452.064 186.213 455 188C457.87 188.373 460.273 188.526 463.125 188.438C463.885 188.422 464.645 188.407 465.428 188.391C477.283 187.987 487.422 183.357 498.16 178.709C500.084 177.968 501.992 177.46 504 177C503.538 180.182 503.055 183.356 502.523 186.528C501.952 189.859 501.952 189.859 501.914 192.692C501.728 195.313 501.443 196.792 500 199C495.654 201.651 490.899 202.789 486 204C485.13 204.227 484.259 204.454 483.362 204.688C465.097 209.386 445.97 212.889 428.625 203.25C422.24 199.11 417.874 194.076 415 187C414.526 183.825 414.476 180.707 414.5 177.5C414.509 176.173 414.509 176.173 414.517 174.819C414.981 157.598 424.085 142.956 436 131C436.614 130.363 437.227 129.727 437.859 129.071C451.741 115.723 477.387 107.848 495 118Z" fill="#FDFEFE"/>
<path d="M587 147C587.66 147 588.32 147 589 147C591.872 154.135 594.741 161.271 597.605 168.41C598.935 171.724 600.266 175.038 601.601 178.351C603.133 182.157 604.661 185.965 606.187 189.773C606.909 191.563 606.909 191.563 607.646 193.388C608.086 194.489 608.527 195.59 608.98 196.724C609.371 197.697 609.762 198.669 610.165 199.671C611 202 611 202 611 204C601.43 204 591.86 204 582 204C580.226 199.648 578.452 195.296 576.625 190.812C576.069 189.448 575.513 188.084 574.94 186.679C574.498 185.595 574.057 184.511 573.601 183.395C573.151 182.29 572.701 181.185 572.237 180.046C571.829 179.041 571.42 178.036 571 177C570.616 176.092 570.232 175.184 569.836 174.249C568.72 171.247 568.87 170.009 570 167C571.743 164.528 573.723 162.304 575.75 160.062C576.808 158.866 577.865 157.67 578.922 156.473C579.438 155.897 579.954 155.321 580.486 154.727C581.964 153.041 583.366 151.31 584.766 149.559C585.503 148.714 586.24 147.87 587 147Z" fill="#54A3C2"/>
<path d="M225 135C224.903 142.85 223.006 147.694 218.438 154C217.895 154.778 217.353 155.556 216.795 156.358C211.419 164.003 205.907 171.652 199 178C198.154 178.783 197.309 179.567 196.438 180.375C194 182 194 182 191.75 181.812C190 181 190 181 189 180C187.733 165.653 191.9 150.997 200.871 139.629C207.989 132.266 215.433 131.075 225 135Z" fill="#54A3C2"/>
<path d="M472 135C474.394 137.394 474.296 138.038 474.312 141.312C474.215 145.363 473.585 147.768 471 151C470.464 151.701 469.928 152.402 469.375 153.125C463.302 157.92 456.479 158.356 449 158C450.584 148.019 454.801 140.963 463 135C466.119 133.441 468.663 134.344 472 135Z" fill="#54A3C2"/>
<path d="M119 63.9999C119 64.6599 119 65.3199 119 65.9999C118.285 66.3122 117.569 66.6244 116.832 66.9462C113.554 68.3786 110.277 69.8142 107 71.2499C105.312 71.9866 105.312 71.9866 103.59 72.7382C98.7766 74.8492 93.9905 76.961 89.3125 79.3593C86 80.9999 86 80.9999 84 80.9999C84 80.3399 84 79.6799 84 78.9999C88.496 76.6902 92.9983 74.3936 97.5071 72.109C99.0405 71.3297 100.572 70.5469 102.102 69.7604C104.299 68.6316 106.502 67.5157 108.707 66.4022C109.392 66.0471 110.076 65.6919 110.781 65.326C115.658 62.886 115.658 62.886 119 63.9999Z" fill="#E9F3F7"/>
</svg>
